<?xml version="1.0" encoding="UTF-8"?>
<!DOCTYPE svg PUBLIC "-//W3C//DTD SVG 1.1//EN" "http://www.w3.org/Graphics/SVG/1.1/DTD/svg11.dtd">
<svg xmlns="http://www.w3.org/2000/svg" version="1.1" width="1920px" height="1920px" style="shape-rendering:geometricPrecision; text-rendering:geometricPrecision; image-rendering:optimizeQuality; fill-rule:evenodd; clip-rule:evenodd" xmlns:xlink="http://www.w3.org/1999/xlink">
<g><path style="opacity:1" fill="#231f20" d="M 568.5,556.5 C 891.833,557.05 1215.17,557.55 1538.5,558C 1583.77,558.707 1618.93,577.54 1644,614.5C 1653.07,630.718 1658.74,648.051 1661,666.5C 1662.61,861.168 1662.61,1055.83 1661,1250.5C 1650.57,1317.93 1611.41,1354.76 1543.5,1361C 1161.83,1361.67 780.167,1361.67 398.5,1361C 365.459,1362.41 334.792,1354.74 306.5,1338C 280.121,1318.43 264.621,1292.26 260,1259.5C 258.08,1241.22 257.08,1222.89 257,1204.5C 256.5,1086.5 256.333,968.5 256.5,850.5C 329.167,850.5 401.833,850.5 474.5,850.5C 474.5,753.5 474.5,656.5 474.5,559.5C 477.813,558.955 481.146,558.455 484.5,558C 512.67,557.832 540.67,557.332 568.5,556.5 Z"/></g>
<g><path style="opacity:1" fill="#fdfdfd" d="M 264.5,858.5 C 337.167,858.5 409.833,858.5 482.5,858.5C 482.5,761.167 482.5,663.833 482.5,566.5C 484.292,565.691 486.292,565.191 488.5,565C 839.5,565.054 1190.5,565.387 1541.5,566C 1595.42,568.349 1631.26,594.849 1649,645.5C 1651.64,654.321 1653.3,663.321 1654,672.5C 1654.67,862.5 1654.67,1052.5 1654,1242.5C 1647.76,1307.08 1612.59,1343.91 1548.5,1353C 1159.17,1353.67 769.833,1353.67 380.5,1353C 351.389,1351.97 325.389,1342.63 302.5,1325C 281.486,1305.47 269.652,1281.3 267,1252.5C 266.372,1241.5 265.706,1230.5 265,1219.5C 264.5,1099.17 264.333,978.834 264.5,858.5 Z"/></g>
<g><path style="opacity:1" fill="#615f5f" d="M 729.5,616.5 C 664.167,616.5 598.833,616.5 533.5,616.5C 533.5,666.833 533.5,717.167 533.5,767.5C 532.501,717.003 532.168,666.336 532.5,615.5C 598.335,615.168 664.002,615.501 729.5,616.5 Z"/></g>
<g><path style="opacity:1" fill="#221f1f" d="M 729.5,616.5 C 729.5,666.833 729.5,717.167 729.5,767.5C 664.167,767.5 598.833,767.5 533.5,767.5C 533.5,717.167 533.5,666.833 533.5,616.5C 598.833,616.5 664.167,616.5 729.5,616.5 Z"/></g>
<g><path style="opacity:1" fill="#231f20" d="M 748.5,615.5 C 869.167,615.333 989.834,615.5 1110.5,616C 1142.04,618.544 1160.54,635.378 1166,666.5C 1166.67,746.167 1166.67,825.833 1166,905.5C 1159.52,940.668 1138.36,957.668 1102.5,956.5C 1102.5,961.167 1102.5,965.833 1102.5,970.5C 1138.19,969.706 1159.35,986.706 1166,1021.5C 1166.67,1096.17 1166.67,1170.83 1166,1245.5C 1161.21,1278.62 1142.05,1296.12 1108.5,1298C 988.5,1298.5 868.5,1298.67 748.5,1298.5C 748.5,1070.83 748.5,843.167 748.5,615.5 Z"/></g>
<g><path style="opacity:1" fill="#231f20" d="M 1185.5,615.5 C 1306.17,615.333 1426.83,615.5 1547.5,616C 1579.04,618.544 1597.54,635.378 1603,666.5C 1603.67,860.167 1603.67,1053.83 1603,1247.5C 1597.53,1278.64 1579.03,1295.47 1547.5,1298C 1426.83,1298.5 1306.17,1298.67 1185.5,1298.5C 1185.5,1070.83 1185.5,843.167 1185.5,615.5 Z"/></g>
<g><path style="opacity:1" fill="#231f20" d="M 532.5,788.5 C 598.167,788.5 663.833,788.5 729.5,788.5C 729.667,941.5 729.5,1094.5 729,1247.5C 723.527,1278.64 705.027,1295.47 673.5,1298C 570.167,1298.67 466.833,1298.67 363.5,1298C 330.906,1292.74 313.739,1273.57 312,1240.5C 311.5,1131.5 311.333,1022.5 311.5,913.5C 377.167,913.5 442.833,913.5 508.5,913.5C 508.5,984.5 508.5,1055.5 508.5,1126.5C 516.5,1126.5 524.5,1126.5 532.5,1126.5C 532.5,1013.83 532.5,901.167 532.5,788.5 Z"/></g>
<g><path style="opacity:1" fill="#fefefe" d="M 945.5,788.5 C 951.925,788.13 958.258,788.63 964.5,790C 966.378,791.543 967.878,793.376 969,795.5C 969.667,838.833 969.667,882.167 969,925.5C 968.167,927.667 966.667,929.167 964.5,930C 958.175,930.5 951.842,930.666 945.5,930.5C 945.5,883.167 945.5,835.833 945.5,788.5 Z"/></g>
<g><path style="opacity:1" fill="#fefefe" d="M 1382.5,790.5 C 1388.51,790.334 1394.51,790.501 1400.5,791C 1403.38,792.251 1405.21,794.417 1406,797.5C 1406.67,904.833 1406.67,1012.17 1406,1119.5C 1405.17,1123 1403,1125.17 1399.5,1126C 1393.84,1126.5 1388.18,1126.67 1382.5,1126.5C 1382.5,1014.5 1382.5,902.5 1382.5,790.5 Z"/></g>
<g><path style="opacity:1" fill="#575454" d="M 482.5,566.5 C 482.5,663.833 482.5,761.167 482.5,858.5C 409.833,858.5 337.167,858.5 264.5,858.5C 336.665,857.501 408.998,857.167 481.5,857.5C 481.167,760.332 481.501,663.332 482.5,566.5 Z"/></g>
<g><path style="opacity:1" fill="#fefefe" d="M 945.5,1009.5 C 950.844,1009.33 956.177,1009.5 961.5,1010C 965.02,1010.5 967.52,1012.34 969,1015.5C 969.667,1050.17 969.667,1084.83 969,1119.5C 967.5,1122.33 965.333,1124.5 962.5,1126C 956.843,1126.5 951.176,1126.67 945.5,1126.5C 945.5,1087.5 945.5,1048.5 945.5,1009.5 Z"/></g>
</svg>
